<svg viewBox="0 0 1033.436 1066.697" xmlns="http://www.w3.org/2000/svg"><path d="M516.718 183.987H0V116.59h516.718zm-224.66-33.7H224.66V21.334h67.398zM59.086 654.02l-31.857-59.4c94.137-52.183 172.455-121.834 232.996-205.228l1.413-2.044c51.542-65.106 85.07-146.606 91.884-235.583l.09-1.48h67.4C414.59 255.57 376.235 350.812 315.61 427.67l.8-1.052C248.4 520.364 162.424 596.78 63.048 651.998l-3.96 2.02zm396.434-.18C326 581.566 222.107 477.07 152.573 350.97l-2.006-3.97 59.22-32.17C275.07 433.504 369.87 528.85 484.5 592.975l3.55 1.825zm459.97 369.297l-161.98-445.77-161.98 445.77-63.355-23.005 180.177-495.78h90.358l180.132 495.78zm-19.996-149.894H654.66v-67.398h240.834zm-249.372 172.09h-172.54v-67.398h172.54zm387.314 0h-172.09v-67.398h172.09z"/></svg>